# xmcd CD database file
#
# Track frame offsets:
#	150
#	15269
#	32770
#	44117
#	58205
#	70161
#	88425
#	101660
#	116009
#	132302
#	146056
#
# Disc length: 2107 seconds
#
# Revision: 0
# Processed by: cddbd v1.5.1PL0 Copyright (c) Steve Scherf et al.
# Submitted via: CDex 1.51
#
DISCID=a508390b
DTITLE=Count Basie - HAVE A NICE DAY
DYEAR=1971
DGENRE=Jazz
TTITLE0=Have A Nice Day
TTITLE1=The Plunger
TTITLE2=Jamie
TTITLE3=It's About Time
TTITLE4=This Way
TTITLE5=Scott's Place
TTITLE6=Doin' Basie's Thing
TTITLE7=The Sprit Is Willing
TTITLE8=Small Talk
TTITLE9=You'me
TTITLE10=Feelin' Free
EXTD=YEAR: 1971
EXTT0=
EXTT1=
EXTT2=
EXTT3=
EXTT4=
EXTT5=
EXTT6=
EXTT7=
EXTT8=
EXTT9=
EXTT10=
PLAYORDER=
